<svg version="1.1" id="Layer_1" xmlns="http://www.w3.org/2000/svg" xmlns:xlink="http://www.w3.org/1999/xlink" x="0px" y="0px"
	 width="100%" viewBox="0 0 720 1024" enable-background="new 0 0 720 1024" xml:space="preserve">
<path fill="#000000" opacity="1.000000" stroke="none" 
	d="
M314.255951,790.933472 
	C300.164459,789.283752 286.950226,785.969727 274.148193,781.076538 
	C258.883850,775.242249 243.410797,771.448608 226.824997,773.871643 
	C212.972382,775.895264 199.627884,772.278320 186.637848,768.211914 
	C177.890305,765.473572 172.443909,758.133240 167.742752,750.479797 
	C159.839310,737.613037 154.283386,723.767334 150.235229,709.263428 
	C148.042084,701.405823 145.109955,693.771118 142.701706,685.996704 
	C135.235580,661.893982 126.427429,638.139709 125.669106,612.361938 
	C125.229843,597.430115 124.865570,582.413757 122.226357,567.592651 
	C121.197357,561.814026 122.379265,555.965210 123.047943,550.177917 
	C124.621964,536.554749 123.951759,522.876648 123.875732,509.230286 
	C123.736488,484.237122 127.323143,459.672272 133.602570,435.669159 
	C135.842789,427.105896 138.782043,418.595306 140.906845,409.903442 
	C142.395554,403.813690 147.236420,399.762573 150.867065,395.102997 
	C162.374756,380.334045 177.521088,371.583618 196.173706,368.702637 
	C205.772537,367.220032 214.619720,363.082031 223.477066,359.216583 
	C232.740753,355.173767 242.136505,351.495544 250.726974,345.948456 
	C260.218262,339.819794 267.382416,331.226898 275.677002,323.841125 
	C290.194794,310.914032 306.979523,303.221161 326.480438,302.125641 
	C337.651062,301.498108 347.137390,306.900055 356.496094,311.930359 
	C371.549316,320.021545 387.497650,321.071930 404.054901,319.515411 
	C428.178131,317.247650 450.505249,320.466583 469.260620,338.294891 
	C483.183136,351.529266 499.247009,361.981873 517.792480,368.206512 
	C533.761169,373.566193 543.052917,386.480530 552.296143,399.515198 
	C561.730225,412.818939 571.286133,426.084259 581.631592,438.673798 
	C586.937927,445.131195 594.360352,449.701202 598.955688,457.102478 
	C606.737305,469.635468 613.439636,482.621979 616.406677,497.140869 
	C618.694580,508.336426 614.602417,518.856812 611.703979,529.447144 
	C609.018433,539.259705 606.082886,549.230957 607.163147,559.412048 
	C608.104065,568.279724 610.573425,577.024292 612.848816,585.696960 
	C614.258118,591.068481 615.229980,596.372131 615.164612,601.934753 
	C615.084656,608.752625 614.965393,615.563232 615.892151,622.382812 
	C616.686829,628.229797 615.760803,633.914551 612.993591,639.355469 
	C609.358032,646.503784 606.753052,654.063904 605.455078,662.037170 
	C604.258850,669.384827 600.864929,675.886719 597.491150,682.406982 
	C594.813721,687.581482 592.327820,692.856384 589.818420,698.116089 
	C585.823242,706.489746 579.785461,713.346497 573.502197,719.990540 
	C568.239746,725.555115 563.077820,731.241028 557.688477,736.649170 
	C551.396301,742.963257 544.297485,748.458923 535.770325,751.864685 
	C531.013184,753.764709 526.517029,756.373779 522.035828,758.898438 
	C507.121124,767.301025 490.649292,772.289795 475.642548,780.639648 
	C463.425171,787.437317 449.553772,787.861023 435.695129,786.690979 
	C419.774628,785.346863 403.830261,784.219177 387.876526,783.367249 
	C381.371307,783.019836 374.787598,784.243835 368.684509,786.328552 
	C353.493683,791.517639 337.879700,791.179810 322.222931,791.006775 
	C319.724243,790.979126 317.225403,790.966187 314.255951,790.933472 
M354.678589,474.508789 
	C354.448364,466.519135 354.176849,458.530365 353.999695,450.539520 
	C353.827728,442.781525 353.381073,442.180756 345.740906,442.347198 
	C319.592743,442.916931 293.447510,443.622589 267.299011,444.174225 
	C257.619232,444.378448 252.413361,448.037415 248.680832,457.817017 
	C250.492950,459.518860 252.771179,458.842987 254.826874,458.809265 
	C276.485077,458.454315 298.143829,458.087494 319.797211,457.524567 
	C323.220428,457.435577 324.552002,458.186737 324.531036,461.844635 
	C324.491974,468.666534 325.044922,475.489502 325.188232,482.315430 
	C325.328705,489.005920 325.122131,489.106140 318.668610,489.221893 
	C298.178528,489.589417 277.688721,489.970551 257.199066,490.361298 
	C250.733902,490.484589 250.222427,490.910767 250.338623,497.158203 
	C250.539932,507.983185 250.828522,518.807312 251.185715,529.628357 
	C251.510452,539.466492 259.856628,543.970642 265.301025,550.380005 
	C265.695740,550.844666 266.888947,550.729797 267.708710,550.718933 
	C274.205383,550.632874 280.702026,550.528442 287.197784,550.389160 
	C309.851013,549.903259 332.504456,549.423584 355.156311,548.879944 
	C358.476532,548.800232 359.556274,550.386841 359.481812,553.459595 
	C359.368805,558.123718 359.095642,562.821167 359.503693,567.450378 
	C359.923798,572.216003 358.092865,573.381409 353.577362,573.335449 
	C332.579498,573.121216 311.576935,573.351990 290.579590,573.112000 
	C285.461914,573.053467 284.018555,574.843750 284.098236,579.795044 
	C284.352936,595.624084 284.167053,611.460022 284.177246,627.293335 
	C284.181427,633.791992 284.211578,633.797424 291.002899,633.795166 
	C317.336182,633.786499 343.673676,633.510254 369.999939,633.935059 
	C377.237274,634.051819 382.586884,632.350281 386.290344,626.098328 
	C387.348328,624.312256 389.853577,622.826416 388.620117,620.508484 
	C387.540466,618.479675 384.997528,619.296204 383.076691,619.291809 
	C361.910156,619.243835 340.742859,619.174377 319.577362,619.328247 
	C315.287079,619.359375 313.554810,617.986938 313.711578,613.589233 
	C313.954834,606.764771 313.948059,599.918213 313.695465,593.094055 
	C313.539703,588.884827 315.217499,587.589417 319.264923,587.644409 
	C331.762512,587.814209 344.264038,587.706482 356.764008,587.690369 
	C373.763885,587.668396 390.764038,587.676758 407.763489,587.577271 
	C413.886108,587.541443 414.678406,586.703003 414.603302,580.571533 
	C414.527832,574.410889 414.187592,568.253906 414.049347,562.093384 
	C413.984070,559.186035 414.118988,556.473633 410.313080,555.505920 
	C407.966827,554.909302 409.009369,552.851807 409.493744,551.308105 
	C412.534973,541.615479 415.590149,531.927246 418.665283,522.245361 
	C418.993347,521.212524 419.142853,519.864868 421.055267,520.245422 
	C421.146027,521.352356 421.312866,522.490173 421.321564,523.629150 
	C421.435883,538.623291 421.478760,553.613220 421.883698,568.609436 
	C422.409943,588.097534 422.284271,607.605835 422.232971,627.104858 
	C422.222168,631.214783 423.634430,632.886597 427.743286,632.700256 
	C432.067749,632.504333 436.408051,632.674011 440.741241,632.651184 
	C447.629822,632.614929 448.646973,631.707275 448.618042,624.909424 
	C448.561340,611.582764 448.411438,598.258850 448.142731,584.931396 
	C447.497864,552.945129 447.413910,520.947632 447.077148,488.954956 
	C447.010864,482.655853 446.451660,482.142822 440.162933,482.159698 
	C430.329742,482.186127 420.494324,482.377655 410.664581,482.214417 
	C406.777985,482.149872 405.041901,483.631592 404.128784,487.373474 
	C401.012238,500.145264 397.746063,512.885498 394.230042,525.552612 
	C392.659576,531.210510 391.945953,537.175659 389.216583,542.766113 
	C385.429077,541.018066 383.612854,537.827026 381.832214,535.041077 
	C377.767487,528.681335 372.408813,526.991760 365.014618,527.115540 
	C338.855377,527.553711 312.683197,527.157959 286.518494,527.381836 
	C281.394745,527.425659 279.631805,525.674866 279.943207,520.757874 
	C280.174103,517.112183 279.998993,513.418335 279.715027,509.768494 
	C279.404236,505.774048 281.146973,504.673615 284.960876,504.596313 
	C306.278595,504.164307 327.589661,503.391998 348.907928,503.007996 
	C353.368652,502.927643 355.217133,501.696075 354.969238,497.000610 
	C354.591797,489.850769 354.752319,482.672577 354.678589,474.508789 
M527.894958,568.537415 
	C527.706848,560.860107 527.706848,560.860107 519.996643,561.107666 
	C512.301453,561.354736 512.297791,561.354736 512.324036,568.946167 
	C512.330322,570.770325 512.342773,572.595276 512.402771,574.418152 
	C512.448853,575.816650 512.824097,577.286255 514.343628,577.535583 
	C518.280090,578.181580 522.471924,578.703308 526.104858,577.135376 
	C529.241272,575.781799 527.617615,572.136292 527.894958,568.537415 
z"/>
</svg>