<svg version="1.1" id="Layer_1" xmlns="http://www.w3.org/2000/svg" xmlns:xlink="http://www.w3.org/1999/xlink" x="0px" y="0px"
	 width="100%" viewBox="0 0 720 1024" enable-background="new 0 0 720 1024" xml:space="preserve">
<path fill="#000000" opacity="1.000000" stroke="none" 
	d="
M300.929260,789.173950 
	C288.069611,786.619202 276.072479,782.800598 264.157471,778.392395 
	C251.556564,773.730408 238.362488,772.176697 224.858398,774.470642 
	C218.054565,775.626343 211.240356,775.043091 204.642883,772.733215 
	C202.918365,772.129456 201.142731,771.375061 199.359619,771.281799 
	C183.776291,770.466980 174.145325,761.055908 166.926285,748.552246 
	C159.410660,735.534851 153.688416,721.744568 150.178833,707.043335 
	C146.658081,692.295227 140.274567,678.457520 136.215668,663.837952 
	C131.314743,646.185608 126.047638,628.725708 125.951050,610.140991 
	C125.876633,595.822021 124.941376,581.522888 122.386902,567.389221 
	C121.657593,563.354065 122.445251,559.412903 122.930359,555.461060 
	C124.989807,538.683716 123.756317,521.842407 123.830200,505.036835 
	C123.906883,487.592621 126.400795,470.530060 130.403824,453.644409 
	C132.384354,445.290009 132.885773,436.506317 137.738251,428.924103 
	C139.017548,426.925171 139.625244,424.151184 139.620926,421.734741 
	C139.600388,410.259216 146.698608,402.556885 152.985703,394.072052 
	C159.320755,385.522491 166.844070,379.013275 176.338455,374.401794 
	C180.560410,372.351196 184.681595,370.188934 189.344330,369.454254 
	C207.515213,366.591095 224.071976,358.798859 240.593918,351.495148 
	C249.929276,347.368317 258.531708,341.025940 265.722870,333.075104 
	C278.773773,318.645447 294.549988,307.931183 313.266144,302.223938 
	C325.420837,298.517517 337.578674,298.039307 348.651611,306.064514 
	C350.264526,307.233490 352.150543,308.027679 353.753723,309.207886 
	C370.721893,321.698975 389.664764,325.028381 410.156830,321.679962 
	C418.752533,320.275452 427.454865,320.746979 436.088959,321.259460 
	C448.591522,322.001556 458.708832,328.782654 465.771820,337.953491 
	C479.778717,356.140503 497.629395,369.283875 517.339966,379.771545 
	C532.550659,387.864838 543.473206,399.427948 550.816772,414.222076 
	C559.707764,432.133545 571.690552,447.798065 583.219299,463.892426 
	C587.932373,470.471924 591.253540,478.037048 594.332886,485.585266 
	C597.567261,493.513519 595.641235,501.430725 593.605103,509.146851 
	C587.498230,532.289551 587.317017,555.150635 595.198975,578.001831 
	C601.789429,597.108948 600.206604,616.732361 597.757568,636.311646 
	C597.596924,637.595581 597.154053,638.989441 596.419128,640.034546 
	C584.563293,656.895142 580.545471,676.738342 575.014404,696.005920 
	C571.282532,709.005798 567.130615,721.857971 558.527466,732.614929 
	C551.233398,741.735229 543.040344,749.745728 530.432617,750.638794 
	C518.484924,751.485107 508.881592,757.333679 499.190521,763.831360 
	C488.318024,771.121277 477.326782,778.394043 464.969421,783.251160 
	C450.884827,788.787109 436.559570,787.608704 422.115204,785.689331 
	C410.397491,784.132324 398.685303,782.506653 386.937408,781.213501 
	C379.354004,780.378845 371.987244,782.051880 364.902557,784.655518 
	C344.140259,792.286072 322.839722,792.061340 300.929260,789.173950 
M309.497253,489.335754 
	C291.680084,489.682037 273.863678,490.086273 256.045135,490.331512 
	C251.874313,490.388885 250.368225,491.903809 250.158279,496.270233 
	C249.579910,508.297485 251.320908,520.216431 251.274521,532.205200 
	C251.262283,535.368958 262.797821,549.820984 265.686768,550.587830 
	C266.317780,550.755371 267.010529,550.737488 267.673828,550.728638 
	C274.002930,550.643921 280.332611,550.578552 286.660614,550.440002 
	C309.473206,549.940857 332.285767,549.438965 355.096771,548.873535 
	C358.370178,548.792419 359.561157,550.256775 359.481262,553.383057 
	C359.362091,558.045532 359.116852,562.738220 359.499054,567.370667 
	C359.880524,571.994995 358.314392,573.393860 353.667267,573.343567 
	C332.509094,573.114746 311.346191,573.337280 290.187347,573.141418 
	C285.342926,573.096619 283.789917,574.904846 283.840179,579.581299 
	C284.010376,595.408142 283.866272,611.238159 283.895630,627.066833 
	C283.907593,633.526550 284.213318,633.789246 290.665833,633.789490 
	C318.157959,633.790649 345.650055,633.781250 373.142181,633.768372 
	C380.512756,633.764954 387.365448,627.991272 389.030518,620.353943 
	C387.229370,618.655457 384.950226,619.289307 382.870239,619.284607 
	C362.376190,619.238342 341.882019,619.265015 321.387878,619.260986 
	C313.787354,619.259460 313.782349,619.247253 313.767151,611.422058 
	C313.756134,605.757019 313.753265,600.091980 313.760162,594.426941 
	C313.768250,587.757385 313.786743,587.715271 320.416504,587.707581 
	C347.408783,587.676392 374.401031,587.668274 401.393311,587.641602 
	C404.225189,587.638855 407.060211,587.641479 409.887970,587.513123 
	C413.035706,587.370300 414.777618,585.886108 414.645111,582.464233 
	C414.355194,574.977173 414.208099,567.484558 413.971710,559.995239 
	C413.917328,558.272888 413.630249,556.582581 411.572144,556.104614 
	C408.567108,555.406738 408.699097,553.607727 409.488342,551.184631 
	C412.581757,541.687683 415.536621,532.145447 418.550934,522.622681 
	C418.887115,521.560547 418.962646,520.273621 420.482269,520.079041 
	C421.719696,520.901733 421.315399,522.176880 421.307068,523.246460 
	C421.191925,538.073853 421.650726,552.890137 421.938812,567.711975 
	C422.324066,587.533630 422.292969,607.365356 422.227173,627.192078 
	C422.213593,631.288940 423.502899,632.959656 427.680939,632.722046 
	C432.165283,632.467041 436.675201,632.677734 441.173798,632.654602 
	C447.839111,632.620300 448.700836,631.849487 448.637390,625.165344 
	C448.460358,606.510986 448.324219,587.854614 447.921967,569.204407 
	C447.340057,542.221375 448.268066,515.226624 447.158020,488.246216 
	C446.978333,483.878662 445.652435,481.936829 440.999634,482.066254 
	C430.842712,482.348755 420.673218,482.332520 410.511597,482.209900 
	C406.906982,482.166382 405.004456,483.482422 404.127899,487.003876 
	C400.833435,500.239288 397.432922,513.449036 393.962677,526.639648 
	C392.552460,532.000122 390.861969,537.286865 389.284058,542.658020 
	C386.590485,541.730225 385.518219,539.901123 384.535736,538.264526 
	C379.189941,529.359619 371.688049,526.682922 361.233063,527.022827 
	C336.100250,527.839722 310.922272,527.202393 285.763733,527.355591 
	C281.421631,527.382019 279.733307,525.963867 279.945099,521.604858 
	C280.154877,517.288147 279.877655,512.945312 279.752136,508.615662 
	C279.673828,505.915955 280.842926,504.705292 283.601440,504.656036 
	C288.428040,504.569855 293.248993,504.192291 298.075623,504.074554 
	C315.225220,503.656281 332.376007,503.282104 349.527039,502.927704 
	C352.351318,502.869385 354.888519,502.868774 354.887726,498.876221 
	C354.884216,481.387268 354.616760,463.906342 353.828217,446.433807 
	C353.695557,443.493652 352.156464,442.276733 349.353699,442.303589 
	C346.854706,442.327515 344.354462,442.267670 341.856384,442.321014 
	C316.889679,442.854065 291.924927,443.513397 266.955933,443.887848 
	C258.107147,444.020569 251.383163,448.891724 248.805573,458.014679 
	C250.724808,459.434601 252.962936,458.844696 255.044083,458.810364 
	C276.529663,458.455933 298.013947,458.024567 319.498749,457.622864 
	C321.727570,457.581177 324.386505,456.665619 324.468323,460.534637 
	C324.640778,468.691040 324.935242,476.845093 325.212738,484.998993 
	C325.313599,487.962585 323.898834,489.236145 320.990784,489.211975 
	C317.492798,489.182861 313.993683,489.286621 309.497253,489.335754 
z"/>
</svg>